<svg width="70" height="70" viewBox="0 0 70 70" fill="none" xmlns="http://www.w3.org/2000/svg">
<path fill-rule="evenodd" clip-rule="evenodd" d="M30.1701 59.4994H30.1569C28.9804 59.4994 27.8302 59.2604 26.7458 58.7951C25.7014 58.3431 24.7626 57.7054 23.9563 56.881C23.15 56.0704 22.5284 55.1134 22.0788 54.0633C21.6291 52.9736 21.4045 51.8172 21.4045 50.6207C21.4177 49.0921 21.8274 47.5768 22.5942 46.2612C23.2684 45.1049 24.194 44.1214 25.2912 43.3769L25.2916 15.3844C25.2916 12.6862 27.4731 10.4929 30.1569 10.4929C32.8408 10.4929 35.0354 12.6861 35.0354 15.3844V43.3769C36.1461 44.1214 37.0844 45.1313 37.7455 46.2877C38.5123 47.617 38.922 49.1456 38.922 50.6874C38.922 53.0399 38.0096 55.2599 36.3571 56.9213C34.705 58.5827 32.5104 59.5 30.1701 59.5L30.1701 59.4994ZM30.1701 12.0214C28.3325 12.0214 26.8252 13.5235 26.8252 15.3843V43.8019C26.8252 44.0679 26.6795 44.3201 26.455 44.4533C24.2735 45.7694 22.9513 48.082 22.9382 50.6339C22.925 52.5743 23.6655 54.4085 25.0403 55.8044C26.4151 57.2002 28.2264 57.9575 30.1565 57.9712H30.1697C32.0998 57.9712 33.9111 57.2135 35.2728 55.8446C36.6476 54.4756 37.4012 52.6414 37.4012 50.7009C37.4012 48.1222 36.079 45.7831 33.8844 44.4538C33.6598 44.321 33.5142 44.0683 33.5142 43.8024L33.5151 15.3836C33.5151 13.5362 32.0077 12.0207 30.1702 12.0207L30.1701 12.0214Z" fill="#1B2234"/>
<path fill-rule="evenodd" clip-rule="evenodd" d="M30.1701 48.3343C29.7473 48.3343 29.4033 47.9885 29.4033 47.5634V29.38C29.4033 28.9549 29.7472 28.6091 30.1701 28.6091C30.593 28.6091 30.9369 28.9549 30.9369 29.38V47.5634C30.9369 47.9885 30.5935 48.3343 30.1701 48.3343Z" fill="#1B2234"/>
<path fill-rule="evenodd" clip-rule="evenodd" d="M30.0249 54.5818C27.8832 54.5818 26.1514 52.8406 26.1514 50.6875C26.1514 48.5344 27.8832 46.7932 30.0249 46.7932C32.1665 46.7932 33.8983 48.5344 33.8983 50.6875C33.8983 52.8406 32.1665 54.5818 30.0249 54.5818ZM30.0249 48.3347C28.729 48.3347 27.6714 49.398 27.6714 50.7008C27.6714 52.0036 28.729 53.0669 30.0249 53.0669C31.3207 53.0669 32.3784 52.0036 32.3784 50.7008C32.3779 49.3847 31.3334 48.3347 30.0249 48.3347Z" fill="#1B2234"/>
<path fill-rule="evenodd" clip-rule="evenodd" d="M27.7379 39.8282H26.0722C25.6494 39.8282 25.3054 39.4824 25.3054 39.0573C25.3054 38.6321 25.6493 38.2864 26.0722 38.2864H27.7379C28.1607 38.2864 28.5047 38.6321 28.5047 39.0573C28.5047 39.4829 28.1607 39.8282 27.7379 39.8282Z" fill="#1B2234"/>
<path fill-rule="evenodd" clip-rule="evenodd" d="M27.7379 35.5344H26.0722C25.6494 35.5344 25.3054 35.1886 25.3054 34.7635C25.3054 34.3383 25.6493 33.9926 26.0722 33.9926H27.7379C28.1607 33.9926 28.5047 34.3383 28.5047 34.7635C28.5047 35.1886 28.1607 35.5344 27.7379 35.5344Z" fill="#1B2234"/>
<path fill-rule="evenodd" clip-rule="evenodd" d="M27.7379 31.2287H26.0722C25.6494 31.2287 25.3054 30.883 25.3054 30.4578C25.3054 30.0327 25.6493 29.6869 26.0722 29.6869H27.7379C28.1607 29.6869 28.5047 30.0327 28.5047 30.4578C28.5047 30.883 28.1607 31.2287 27.7379 31.2287Z" fill="#1B2234"/>
<path fill-rule="evenodd" clip-rule="evenodd" d="M27.7379 26.9221H26.0722C25.6494 26.9221 25.3054 26.5763 25.3054 26.1512C25.3054 25.726 25.6493 25.3802 26.0722 25.3802H27.7379C28.1607 25.3802 28.5047 25.726 28.5047 26.1512C28.5047 26.5763 28.1607 26.9221 27.7379 26.9221Z" fill="#1B2234"/>
<path fill-rule="evenodd" clip-rule="evenodd" d="M27.7379 22.6281H26.0722C25.6494 22.6281 25.3054 22.2824 25.3054 21.8572C25.3054 21.4321 25.6493 21.0863 26.0722 21.0863H27.7379C28.1607 21.0863 28.5047 21.4321 28.5047 21.8572C28.5047 22.2828 28.1607 22.6281 27.7379 22.6281Z" fill="#1B2234"/>
<path fill-rule="evenodd" clip-rule="evenodd" d="M27.7379 18.3226H26.0722C25.6494 18.3226 25.3054 17.9768 25.3054 17.5517C25.3054 17.1265 25.6493 16.7808 26.0722 16.7808H27.7379C28.1607 16.7808 28.5047 17.1265 28.5047 17.5517C28.5047 17.9768 28.1607 18.3226 27.7379 18.3226Z" fill="#1B2234"/>
<path fill-rule="evenodd" clip-rule="evenodd" d="M46.3386 41.7819C42.8086 41.7819 39.9397 38.8976 39.9397 35.3486C39.9397 31.7997 42.8086 28.9154 46.3386 28.9154C49.8686 28.9154 52.7375 31.7997 52.7375 35.3486C52.7375 38.8976 49.8686 41.7819 46.3386 41.7819ZM46.3386 30.444C43.6416 30.444 41.4601 32.6505 41.4601 35.3486C41.4601 38.0601 43.6549 40.2533 46.3386 40.2533C49.0223 40.2533 51.217 38.0468 51.217 35.3486C51.217 32.6372 49.0356 30.444 46.3386 30.444Z" fill="#1B2234"/>
<path fill-rule="evenodd" clip-rule="evenodd" d="M40.6936 36.1065H37.8378C37.415 36.1065 37.071 35.7608 37.071 35.3356C37.071 34.9105 37.415 34.5647 37.8378 34.5647H40.6936C41.1165 34.5647 41.4604 34.9105 41.4604 35.3356C41.4604 35.7607 41.1169 36.1065 40.6936 36.1065Z" fill="#1B2234"/>
<path fill-rule="evenodd" clip-rule="evenodd" d="M54.8398 36.1065H51.9841C51.5612 36.1065 51.2173 35.7608 51.2173 35.3356C51.2173 34.9105 51.5612 34.5647 51.9841 34.5647H54.8398C55.2627 34.5647 55.6066 34.9105 55.6066 35.3356C55.6066 35.7607 55.2496 36.1065 54.8398 36.1065Z" fill="#1B2234"/>
<path fill-rule="evenodd" clip-rule="evenodd" d="M40.337 42.1532C40.1387 42.1532 39.9536 42.0734 39.7948 41.9274C39.504 41.635 39.504 41.1433 39.7948 40.8509L41.8044 38.8305C42.1084 38.5249 42.5843 38.5249 42.8752 38.8305C43.166 39.1229 43.166 39.6147 42.8752 39.9071L40.8656 41.9274C40.7204 42.0739 40.5357 42.1532 40.337 42.1532Z" fill="#1B2234"/>
<path fill-rule="evenodd" clip-rule="evenodd" d="M50.3321 32.1057C50.1338 32.1057 49.9487 32.0259 49.7899 31.8799C49.4991 31.5875 49.4991 31.0958 49.7899 30.8034L51.7995 28.783C52.1035 28.4906 52.5794 28.4906 52.8703 28.783C53.1611 29.0886 53.1611 29.5672 52.8703 29.8596L50.8607 31.8799C50.7155 32.0259 50.5304 32.1057 50.3321 32.1057Z" fill="#1B2234"/>
<path fill-rule="evenodd" clip-rule="evenodd" d="M52.3414 42.1532C52.1432 42.1532 51.958 42.0734 51.7992 41.9274L49.7897 39.907C49.4988 39.6014 49.4988 39.1229 49.7897 38.8305C50.0805 38.5381 50.5696 38.5381 50.8605 38.8305L52.87 40.8509C53.1609 41.1565 53.1609 41.635 52.87 41.9274C52.738 42.0738 52.5397 42.1532 52.3414 42.1532Z" fill="#1B2234"/>
<path fill-rule="evenodd" clip-rule="evenodd" d="M42.3463 32.1057C42.1481 32.1057 41.9629 32.0259 41.8041 31.8799L39.795 29.8459C39.5042 29.5403 39.5042 29.0618 39.795 28.7693C40.0859 28.4769 40.575 28.4769 40.8658 28.7693L42.8754 30.7897C43.1662 31.0953 43.1662 31.5738 42.8754 31.8662C42.7434 32.0259 42.5451 32.1057 42.3463 32.1057Z" fill="#1B2234"/>
<path fill-rule="evenodd" clip-rule="evenodd" d="M46.3386 44.6523C45.9157 44.6523 45.5718 44.3065 45.5718 43.8814V41.0103C45.5718 40.5852 45.9157 40.2394 46.3386 40.2394C46.7615 40.2394 47.1054 40.5851 47.1054 41.0103V43.8814C47.1054 44.307 46.7619 44.6523 46.3386 44.6523Z" fill="#1B2234"/>
<path fill-rule="evenodd" clip-rule="evenodd" d="M46.3386 30.444C45.9157 30.444 45.5718 30.0983 45.5718 29.6731V26.802C45.5718 26.3769 45.9157 26.0311 46.3386 26.0311C46.7615 26.0311 47.1054 26.3769 47.1054 26.802V29.6731C47.1054 30.0983 46.7619 30.444 46.3386 30.444Z" fill="#1B2234"/>
<rect x="0.5" y="0.5" width="69" height="69" rx="34.5" stroke="#1B2234"/>
</svg>
