<svg width="70" height="70" viewBox="0 0 70 70" fill="none" xmlns="http://www.w3.org/2000/svg">
<path d="M58.216 54.8328H52.1112C50.8391 54.8328 49.7978 53.7942 49.7978 52.5123V52.306C49.7978 51.5161 50.1915 50.7933 50.8455 50.3618C51.5662 49.894 51.9963 49.1041 51.9963 48.2419C51.9963 47.4401 51.633 46.7109 50.9972 46.2248C50.246 45.66 49.7978 44.7485 49.7978 43.801C49.7978 42.8534 50.246 41.942 50.9972 41.3772C51.633 40.8971 51.9963 40.1623 51.9963 39.3601C51.9963 38.5584 51.633 37.8232 50.9972 37.3431C50.3005 36.8147 49.8645 36.0007 49.81 35.1257C49.81 35.0893 49.8041 35.0588 49.8041 35.0223V34.9736V34.9249C49.8041 34.8884 49.8041 34.8579 49.81 34.8215C49.8704 33.9469 50.3068 33.1265 50.9972 32.6041C51.633 32.124 51.9963 31.3892 51.9963 30.587C51.9963 29.7853 51.633 29.0561 50.9908 28.57C50.2397 28.0051 49.7915 27.0937 49.7915 26.1462C49.7915 25.1986 50.2397 24.2872 50.9908 23.7223C51.6266 23.2422 51.9899 22.5075 51.9899 21.7053C51.9899 20.8489 51.5599 20.0532 50.8391 19.5853C50.1788 19.154 49.7915 18.431 49.7915 17.6412V17.4348C49.7915 16.1589 50.8269 15.1144 52.1048 15.1144H58.2097C58.6215 15.1144 58.9608 15.4483 58.9608 15.8678C58.9608 16.2869 58.6279 16.6212 58.2097 16.6212H52.1048C51.6566 16.6212 51.2933 16.9856 51.2933 17.4352V17.6416C51.2933 17.9149 51.4327 18.17 51.6625 18.3221C52.8074 19.0691 53.4913 20.3327 53.4913 21.6998C53.4913 22.9757 52.91 24.1477 51.8923 24.9194C51.5168 25.205 51.2929 25.6605 51.2929 26.1406C51.2929 26.6207 51.5168 27.0822 51.8923 27.3619C52.9096 28.1335 53.4913 29.306 53.4913 30.5755C53.4913 31.845 52.91 33.0234 51.8923 33.7951C51.529 34.0684 51.3111 34.5058 51.2929 34.9677C51.311 35.4296 51.529 35.8669 51.8923 36.1402C52.9096 36.9118 53.4913 38.0844 53.4913 39.3598C53.4913 40.6357 52.91 41.8077 51.8923 42.5735C51.5168 42.8591 51.2929 43.3146 51.2929 43.7947C51.2929 44.2748 51.5168 44.7363 51.8923 45.016C52.9096 45.7876 53.4913 46.9601 53.4913 48.2356C53.4913 49.6026 52.8069 50.8657 51.6625 51.6133C51.4323 51.765 51.2933 52.0141 51.2933 52.2938V52.5001C51.2933 52.9497 51.6566 53.3142 52.1048 53.3142H57.4586L57.459 21.1429C57.459 20.7298 57.7919 20.3895 58.2101 20.3895C58.6279 20.3895 58.9612 20.7234 58.9612 21.1429V54.08C58.9612 54.4932 58.6283 54.8334 58.2101 54.8334L58.216 54.8328ZM20.3589 46.6805C19.8321 46.6805 19.3053 46.5165 18.8449 46.2004L12.6011 41.8388H9.4581C7.36869 41.8388 5.66699 40.132 5.66699 38.0361V32.0283C5.66699 29.9325 7.36859 28.2256 9.4581 28.2256H12.6011L18.8449 23.864C19.6323 23.3174 20.6191 23.2322 21.4852 23.6394C22.3512 24.0467 22.9206 24.8666 23.0052 25.8264C23.1564 27.6366 23.2654 29.4532 23.3322 31.2752C25.3126 31.3786 26.8871 33.0248 26.8871 35.0355C26.8871 37.0461 25.3126 38.6924 23.3322 38.7957C23.2718 40.6183 23.1628 42.4344 23.0052 44.2446C22.9266 45.2044 22.3572 46.0184 21.4852 46.4315C21.1219 46.6014 20.7341 46.6866 20.3526 46.6866L20.3589 46.6805ZM13.5942 40.6909L19.705 44.9613C20.0442 45.1982 20.4743 45.2346 20.8498 45.0583C21.2254 44.8821 21.4738 44.5236 21.5101 44.1045C22.0251 38.0662 22.0251 31.955 21.5101 25.941C21.4738 25.5219 21.2254 25.1693 20.8498 24.9935C20.4743 24.8172 20.0442 24.8537 19.705 25.0905L13.2673 29.586C13.1342 29.683 12.9707 29.7258 12.8131 29.7194H9.45808C8.19243 29.7194 7.16882 30.7521 7.16882 32.0157V38.0235C7.16882 39.293 8.19833 40.3198 9.45808 40.3198H12.0866V32.0034C12.0866 31.5903 12.4195 31.25 12.8377 31.25C13.2555 31.25 13.5888 31.5839 13.5888 32.0034V40.6783L13.5942 40.6909ZM23.3752 32.7817C23.4056 34.2762 23.4056 35.7767 23.3752 37.2772C24.5078 37.1556 25.3861 36.1958 25.3861 35.0296C25.3861 33.8631 24.5019 32.9032 23.3752 32.7821V32.7817ZM40.2786 45.7633C40.1274 45.7633 39.9757 45.7209 39.8486 45.6234C39.5094 45.3866 39.4308 44.9128 39.6669 44.5726C41.8895 41.4136 43.0161 38.2122 43.022 35.0655C43.022 31.9005 41.8957 28.675 39.6669 25.4674C39.4308 25.1271 39.5157 24.6593 39.8545 24.4224C40.1937 24.1855 40.6601 24.2707 40.8963 24.6106C45.7292 31.554 45.7292 38.564 40.8963 45.4405C40.7509 45.6468 40.5207 45.7625 40.2846 45.7625L40.2786 45.7633ZM34.489 42.914C34.3377 42.914 34.1861 42.8716 34.0589 42.7742C33.7197 42.5373 33.6411 42.0636 33.8772 41.7233C35.4399 39.4999 36.2332 37.2583 36.2332 35.0532C36.2332 32.8358 35.4458 30.57 33.8772 28.3162C33.6411 27.9759 33.726 27.5081 34.0648 27.2713C34.404 27.0344 34.8704 27.1196 35.1066 27.4594C38.6134 32.5014 38.6134 37.5919 35.1066 42.592C34.9613 42.7984 34.731 42.9141 34.4949 42.9141L34.489 42.914ZM29.8559 39.6033C29.7047 39.6033 29.553 39.5609 29.4259 39.4634C29.0866 39.2266 29.0081 38.7528 29.2442 38.4125C30.8369 36.1405 30.8369 33.9234 29.2442 31.6331C29.0081 31.2929 29.093 30.825 29.4318 30.5882C29.771 30.3513 30.2374 30.4365 30.4735 30.7763C31.4545 32.1857 31.9453 33.6192 31.9453 35.0468C31.9453 36.4684 31.4485 37.896 30.4735 39.2808C30.3282 39.4871 30.098 39.6028 29.8618 39.6028L29.8559 39.6033Z" fill="#1B2234"/>
<rect x="0.5" y="0.5" width="69" height="69" rx="34.5" stroke="black"/>
</svg>
