<svg width="71" height="70" viewBox="0 0 71 70" fill="none" xmlns="http://www.w3.org/2000/svg">
<path d="M59.129 32.0846C59.129 31.5787 58.719 31.1687 58.2131 31.1687C57.7072 31.1687 57.2972 31.5787 57.2972 32.0846C57.2943 32.6603 57.1111 33.2202 56.7727 33.686C56.4346 34.1518 55.9587 34.4996 55.4123 34.6802C54.9258 29.6269 51.8514 25.1886 47.2918 22.9565C48.1362 20.3228 47.7458 17.4484 46.2289 15.1357C44.712 12.823 42.2311 11.3197 39.4787 11.0452C36.7266 10.7708 33.9978 11.7547 32.0541 13.7225C30.1102 15.6902 29.16 18.4308 29.4681 21.1797C29.0505 21.3042 28.6273 21.414 28.2244 21.5607L21.9962 18.4466H21.9959C21.6824 18.2849 21.3039 18.3174 21.0227 18.5307C20.7418 18.7436 20.608 19.0992 20.6789 19.4448L21.8478 25.2938C20.017 26.8827 18.6095 28.9013 17.7515 31.1686H15.5901C14.9919 31.1696 14.4184 31.4076 13.9955 31.8308C13.5723 32.2537 13.3343 32.8272 13.3333 33.4254V38.0709C13.3343 38.6691 13.5723 39.2426 13.9955 39.6655C14.4184 40.0887 14.9919 40.3267 15.5901 40.3277H18.0685C19.418 43.2068 21.5962 45.6172 24.3243 47.25V52.0128L23.6098 53.4396V53.44C23.2467 54.162 23.2842 55.021 23.7089 55.709C24.1332 56.3966 24.8842 56.8152 25.6928 56.8141H28.7737C29.5368 56.8131 30.2681 56.5097 30.8076 55.9701C31.3472 55.4306 31.6506 54.6993 31.6516 53.9362V50.0639C34.677 50.6435 37.7854 50.6435 40.8108 50.0639V52.0114L40.0963 53.4382C39.7325 54.1605 39.7693 55.02 40.194 55.7083C40.6187 56.3966 41.3704 56.8156 42.1793 56.8142H45.2606H45.2602C46.0234 56.8131 46.7546 56.5097 47.2942 55.9702C47.8338 55.4306 48.1371 54.6993 48.1382 53.9362V47.2357C52.0931 45.02 54.775 41.0726 55.3775 36.5799C56.4294 36.3867 57.3803 35.8314 58.0655 35.0103C58.7511 34.1892 59.1271 33.1541 59.1292 32.0848L59.129 32.0846ZM38.5703 12.8503C40.5653 12.8543 42.4723 13.6711 43.8511 15.1126C45.2301 16.554 45.9617 18.4954 45.8769 20.4885C45.7924 22.4814 44.8987 24.3536 43.4028 25.6731H33.7362C32.24 24.3536 31.3462 22.4809 31.2618 20.4878C31.1773 18.4947 31.9094 16.5529 33.2886 15.1118C34.6679 13.6704 36.5752 12.8535 38.5701 12.8503H38.5703ZM46.7584 45.9296H46.7588C46.4787 46.0938 46.3062 46.3944 46.3062 46.7192V53.9367V53.9364C46.3062 54.5142 45.8379 54.9825 45.2601 54.9825H42.1792C42.0071 54.9822 41.8479 54.8931 41.7574 54.7468C41.6672 54.6008 41.659 54.4183 41.7359 54.2645L42.5455 52.6451C42.6082 52.5174 42.6414 52.3772 42.6425 52.2348V48.9375C42.6421 48.6563 42.5126 48.3911 42.2915 48.2176C42.0701 48.0444 41.7817 47.9822 41.5087 48.0491C38.0397 48.8859 34.4211 48.8827 30.9537 48.0398C30.6803 47.9758 30.3927 48.0377 30.1698 48.2083C29.949 48.3818 29.8199 48.6473 29.8199 48.9282V53.9403C29.8199 54.5178 29.3515 54.9861 28.7737 54.9861H25.6928C25.5207 54.9858 25.3615 54.8967 25.271 54.7507C25.1808 54.6044 25.1726 54.4219 25.2495 54.2681L26.0592 52.6487C26.1225 52.5199 26.1558 52.3783 26.1562 52.2348V46.7393C26.1565 46.4137 25.9844 46.1124 25.7036 45.9479C22.9333 44.423 20.7604 42.0059 19.5376 39.0896C19.4038 38.7332 19.0632 38.4967 18.6822 38.496H15.5902C15.3555 38.496 15.1652 38.3057 15.1652 38.071V33.4255C15.1652 33.1908 15.3555 33.0005 15.5902 33.0005H18.4113C18.8149 33.0008 19.1716 32.7368 19.2886 32.35C20.0546 29.9833 21.4979 27.8932 23.4395 26.3382C23.6968 26.1236 23.8159 25.7855 23.7508 25.457L22.8406 20.9103L27.7608 23.3779C27.9887 23.4935 28.2553 23.5071 28.4936 23.4144C28.9315 23.2459 29.3984 23.1249 29.8545 22.984C30.1644 23.9514 30.6338 24.8601 31.243 25.673C30.7371 25.673 30.3271 26.083 30.3271 26.5889C30.3271 27.0948 30.7371 27.5049 31.243 27.5049H45.8977C46.4036 27.5049 46.8136 27.0948 46.8136 26.5889C46.8136 26.083 46.4036 25.673 45.8977 25.673C46.1403 25.346 46.36 25.0025 46.5553 24.6455C48.5818 25.6344 50.307 27.1477 51.5517 29.0283C52.7961 30.9084 53.5153 33.0876 53.6336 35.3395C53.5302 37.5559 52.839 39.7048 51.6308 41.5659C50.4226 43.4267 48.741 44.9327 46.7589 45.9294L46.7584 45.9296Z" fill="#1B2234"/>
<path d="M25.24 27.505C24.5112 27.505 23.8124 27.7945 23.2968 28.3097C22.7816 28.8252 22.4922 29.524 22.4922 30.2528C22.4922 30.9816 22.7816 31.6803 23.2968 32.1959C23.8124 32.7111 24.5112 33.0005 25.24 33.0005C25.9688 33.0005 26.6675 32.7111 27.1831 32.1959C27.6983 31.6803 27.9877 30.9816 27.9877 30.2528C27.9877 29.524 27.6983 28.8252 27.1831 28.3097C26.6675 27.7945 25.9688 27.505 25.24 27.505ZM25.24 31.1687C24.8697 31.1687 24.5355 30.9454 24.3938 30.6034C24.2521 30.261 24.3305 29.8671 24.5924 29.6052C24.8543 29.3433 25.2482 29.265 25.5905 29.4066C25.9326 29.5483 26.1558 29.8825 26.1558 30.2528C26.1558 30.4957 26.0592 30.7286 25.8875 30.9004C25.7158 31.0721 25.4829 31.1687 25.24 31.1687Z" fill="#1B2234"/>
<path d="M38.5704 22.4565C38.1947 22.4555 37.8899 22.151 37.8892 21.7753C37.8892 21.2694 37.4788 20.8594 36.9733 20.8594C36.4674 20.8594 36.0573 21.2694 36.0573 21.7753C36.0584 22.2798 36.2115 22.7725 36.4963 23.1889C36.7811 23.6054 37.1847 23.9267 37.6545 24.1109V24.1714C37.6545 24.6769 38.0645 25.0873 38.5704 25.0873C39.0763 25.0873 39.4864 24.6769 39.4864 24.1714V24.1109C40.2205 23.8254 40.7783 23.2122 40.9926 22.4544C41.2069 21.6966 41.053 20.8823 40.5768 20.2547C40.101 19.6272 39.3578 19.2598 38.5704 19.2619C38.2949 19.2619 38.0463 19.0959 37.9411 18.8411C37.8356 18.5867 37.8939 18.2933 38.0885 18.0987C38.2835 17.9037 38.5765 17.8454 38.8313 17.9509C39.086 18.0565 39.252 18.3048 39.252 18.5803C39.252 19.0862 39.662 19.4962 40.1679 19.4962C40.6738 19.4962 41.0838 19.0862 41.0838 18.5803C41.0828 18.0758 40.93 17.5831 40.6452 17.1663C40.3601 16.7498 39.9565 16.4285 39.4864 16.2447V16.1842C39.4864 15.6787 39.0764 15.2683 38.5705 15.2683C38.0646 15.2683 37.6545 15.6787 37.6545 16.1842V16.2447C36.9204 16.5302 36.3629 17.1434 36.1487 17.9012C35.9344 18.659 36.0882 19.4733 36.5641 20.1009C37.0403 20.7284 37.7831 21.0958 38.5705 21.0937C38.9469 21.0937 39.2521 21.3989 39.2521 21.7753C39.2521 22.1517 38.9468 22.4565 38.5704 22.4565Z" fill="#1B2234"/>
<rect x="0.833252" y="0.5" width="69" height="69" rx="34.5" stroke="#1B2234"/>
</svg>
