
<svg width="71" height="70" viewBox="0 0 71 70" fill="none" xmlns="http://www.w3.org/2000/svg">
<path d="M58.3293 19.3717H40.3269L37.1027 18.0515H37.0892C36.928 17.9828 36.7532 17.9828 36.5923 18.0515H36.5788L33.3409 19.3717H15.3384C14.9623 19.3717 14.6667 19.6742 14.6667 20.0592V53.0624C14.6667 53.4475 14.9623 53.75 15.3384 53.75H29.9952L36.5915 56.4451C36.6587 56.4862 36.7528 56.5 36.8334 56.5C36.914 56.5 37.0082 56.4862 37.0888 56.4451L43.6717 53.75H58.3284C58.7046 53.75 59.0001 53.4475 59.0001 53.0624V20.0592C59.0001 19.6742 58.7046 19.3717 58.3284 19.3717H58.3293ZM21.3848 20.7468H29.9827L23.1448 23.552C22.8897 23.6484 22.7285 23.9094 22.7285 24.1847V24.8722H21.3851L21.3848 20.7468ZM22.7956 44.041C22.8091 44.1646 22.8226 44.2886 22.8492 44.4122C22.8894 44.6871 22.9299 44.9485 22.9835 45.2237C23.0105 45.3612 23.0371 45.4986 23.0776 45.6226C23.1448 45.884 23.2119 46.145 23.2925 46.4064C23.3327 46.5166 23.3597 46.6402 23.4001 46.7503C23.4001 46.7914 23.4136 46.8325 23.4268 46.874H21.3847V42.7485H22.7281V42.8587C22.7284 43.2572 22.7551 43.656 22.7956 44.041ZM22.7285 35.8731H21.3851V31.7476H22.7285V35.8731ZM16.0114 20.7469H20.0418V24.8724H16.0114V20.7469ZM16.0114 26.2474H22.7281V30.3729H16.0114V26.2474ZM16.0114 31.748H20.0418V35.8734H16.0114V31.748ZM16.0114 37.2485H22.7281V41.3739H16.0114V37.2485ZM16.0114 42.749H20.0418V46.8744H16.0114V42.749ZM25.4155 52.3748H16.0114V48.2494L20.7134 48.2497H24.0182C24.166 48.5522 24.3407 48.8409 24.5151 49.1161C24.5553 49.1848 24.5958 49.2536 24.6359 49.3223C24.8778 49.6935 25.1328 50.0512 25.4152 50.381L25.4155 52.3748ZM26.7589 52.3748V51.7699C27.0008 51.976 27.2558 52.1825 27.5112 52.3748H26.7589ZM36.163 47.5623V54.7955L30.4266 52.4439C30.4131 52.4301 30.3996 52.4301 30.3864 52.4163C28.9088 51.7975 27.5921 50.8486 26.5844 49.6662C26.2754 49.3088 25.9934 48.9373 25.738 48.525C25.4826 48.1261 25.2542 47.7 25.0393 47.2598C24.5556 46.2284 24.2465 45.1286 24.1258 44.0008C24.0856 43.6296 24.0587 43.2445 24.0587 42.8595V37.2489H36.1495V47.5625L36.163 47.5623ZM36.163 35.874H24.0721V24.6534L31.7163 21.5318L33.7313 20.7069H33.7448L36.163 19.7169L36.163 35.874ZM52.2845 20.7479V24.8734H50.9411L50.9407 24.1858C50.9407 23.911 50.7795 23.6496 50.5244 23.5532L43.6862 20.748L52.2845 20.7479ZM50.9407 31.7493H52.2841V35.8747H50.9407V31.7493ZM50.9407 42.7507H52.2841V46.8761H50.2421C50.2555 46.835 50.269 46.7936 50.2822 46.7525C50.3223 46.6423 50.3493 46.5325 50.3898 46.4086C50.4704 46.1472 50.5511 45.8861 50.6047 45.6109C50.6317 45.4734 50.6584 45.3495 50.6988 45.2121C50.7525 44.9507 50.7929 44.6758 50.8331 44.4006C50.8466 44.277 50.8732 44.153 50.8867 44.0294C50.9269 43.6443 50.9539 43.2455 50.9539 42.8467L50.9542 42.7507L50.9407 42.7507ZM37.5069 19.7039L39.9251 20.6939H39.9386L41.9536 21.5188L49.5978 24.6404V35.8752H37.5069L37.5069 19.7039ZM46.911 52.3765H46.1587C46.4141 52.1838 46.6691 51.9915 46.911 51.7715V52.3765ZM47.0854 49.6814C47.0723 49.6814 47.0723 49.6814 47.0854 49.6814C46.0777 50.8641 44.7614 51.8126 43.2834 52.4314C43.2699 52.4314 43.2699 52.4452 43.2565 52.4452H43.243L37.5065 54.7968L37.5069 53.0644V37.2505H49.5977V42.8612C49.5977 43.2462 49.5708 43.6312 49.5306 44.0024C49.4098 45.1299 49.1008 46.23 48.6171 47.2615C48.2139 48.1551 47.7034 48.9666 47.0854 49.6814ZM57.658 52.3765H48.2539V50.3965C48.5359 50.0664 48.7913 49.709 49.0332 49.3378C49.0734 49.2691 49.1138 49.2003 49.154 49.1316C49.3287 48.8429 49.5032 48.5539 49.6644 48.2514H57.6584L57.658 52.3765ZM57.658 46.8764H53.6276V42.7509H57.658V46.8764ZM57.658 41.3759H50.9413V37.2504H57.6584L57.658 41.3759ZM57.658 35.8753H53.6276V31.7499H57.658V35.8753ZM57.658 30.3748H50.9413V26.2494H57.6584L57.658 30.3748ZM57.658 24.8743H53.6276L53.628 20.7489H57.6584L57.658 24.8743Z" fill="white"/>
<rect x="1.16675" y="0.5" width="69" height="69" rx="34.5" stroke="white"/>
</svg>
